HIERARCHY
ROOT Cadera
{
	OFFSET 0.00 0.00 0.00
	CHANNELS 6 Xposition Yposition Zposition Zrotation Xrotation Yrotation
	JOINT Pecho
	{
		OFFSET 0.00 10.00 0.00
		CHANNELS 3 Yrotation Xrotation Zrotation
		JOINT Brazo
		{
			OFFSET 3.00 4.00 0.00
			CHANNELS 3 Xrotation Zrotation Yrotation
			End Site
			{
				OFFSET 0.00 6.00 0.00
			}
		}
	}
}
MOTION
Frames: 4
Frame Time: 0.0333333
0.00 0.00 0.00 0.00 0.00 0.00 0.00 0.00 0.00 0.00 0.00 0.00
1.00 2.00 3.00 30.00 0.00 0.00 0.00 45.00 0.00 20.00 0.00 0.00
0.00 5.00 0.00 0.00 60.00 0.00 15.00 0.00 25.00 0.00 -30.00 40.00
2.00 0.00 -1.00 90.00 0.00 -45.00 0.00 0.00 90.00 -60.00 10.00 0.00
